<?xml version="1.0" encoding="UTF-8"?>
<svg width="28px" height="26px" viewBox="0 0 28 26" version="1.1" xmlns="http://www.w3.org/2000/svg" xmlns:xlink="http://www.w3.org/1999/xlink">
    <!-- Generator: sketchtool 56.3 (101010) - https://sketch.com -->
    <title>4F6191C7-BD64-43B6-AFDD-5BF60FCBC81D</title>
    <desc>Created with sketchtool.</desc>
    <g id="Tablet" stroke="none" stroke-width="1" fill="none" fill-rule="evenodd">
        <g id="pl-search_select_keyboard" transform="translate(-34.000000, -43.000000)" fill="#000000" fill-rule="nonzero">
            <g id="Nav+Header">
                <g id="Icons/Nav/Back" transform="translate(32.000000, 40.000000)">
                    <path d="M12.0890873,19 L16.6945436,23.6054564 C17.7684855,24.6793982 17.7684855,26.4206018 16.6945436,27.4945436 C15.6206018,28.5684855 13.8793982,28.5684855 12.8054564,27.4945436 L3.30545635,17.9945436 C2.23151455,16.9206018 2.23151455,15.1793982 3.30545635,14.1054564 L12.8054564,4.60545635 C13.8793982,3.53151455 15.6206018,3.53151455 16.6945436,4.60545635 C17.7684855,5.67939815 17.7684855,7.42060185 16.6945436,8.49454365 L12.1890873,13 L26.5,13 C28.1568542,13 29.5,14.3431458 29.5,16 C29.5,17.6568542 28.1568542,19 26.5,19 L12.0890873,19 Z" id="Combined-Shape"></path>
                </g>
            </g>
        </g>
    </g>
</svg>