<?xml version="1.0" encoding="UTF-8"?>
<svg width="272px" height="116px" viewBox="0 0 272 116" version="1.1" xmlns="http://www.w3.org/2000/svg" xmlns:xlink="http://www.w3.org/1999/xlink">
    <!-- Generator: sketchtool 56.3 (101010) - https://sketch.com -->
    <title>75971FEF-5C56-46F7-A33D-31536E6FCA17</title>
    <desc>Created with sketchtool.</desc>
    <g id="Tablet" stroke="none" stroke-width="1" fill="none" fill-rule="evenodd">
        <g id="meet_company" transform="translate(-664.000000, -255.000000)">
            <g id="Companies" transform="translate(344.000000, 255.000000)">
                <g id="Buda" transform="translate(320.000000, 0.000000)">
                    <path d="M15.3833112,0.5 C10.5818938,0.5 8.51481192,0.899171926 6.37472521,2.04370282 C4.50630389,3.04294548 3.04294548,4.50630389 2.04370282,6.37472521 C0.899171926,8.51481192 0.5,10.5818938 0.5,15.3833112 L0.5,100.616689 C0.5,105.418106 0.899171926,107.485188 2.04370282,109.625275 C3.04294548,111.493696 4.50630389,112.957055 6.37472521,113.956297 C8.51481192,115.100828 10.5818938,115.5 15.3833112,115.5 L256.616689,115.5 C261.418106,115.5 263.485188,115.100828 265.625275,113.956297 C267.493696,112.957055 268.957055,111.493696 269.956297,109.625275 C271.100828,107.485188 271.5,105.418106 271.5,100.616689 L271.5,15.3833112 C271.5,10.5818938 271.100828,8.51481192 269.956297,6.37472521 C268.957055,4.50630389 267.493696,3.04294548 265.625275,2.04370282 C263.485188,0.899171926 261.418106,0.5 256.616689,0.5 L15.3833112,0.5 Z" id="Rectangle" stroke-opacity="0.24" stroke="#427DE0" fill="#4F90FF"></path>
                    <g id="Logo-White" transform="translate(33.000000, 40.000000)" fill="#FFFFFF" fill-rule="nonzero">
                        <path d="M21.527889,24.538216 C22.1591673,24.1846854 22.156852,23.2701677 21.5240304,22.919745 L12.9948283,18.2041902 L12.9948283,13.1568605 C12.9948283,12.2843003 12.0702911,11.7264212 11.3062747,12.1382261 L7.48542057,14.1941427 C7.18675957,14.3549797 7,14.6681069 7,15.0092057 L7,22.9640334 C7,23.3004703 7.18212915,23.6112664 7.475388,23.7736575 L14.9997927,27.942988 C15.1387048,28.019133 15.306171,28.019133 15.4443114,27.942211 L21.527889,24.538216 Z M31.0537883,18.9532931 C31.6375554,19.2773689 32,19.8938089 32,20.5636171 L32,27.4434594 C32,28.1171349 31.6336996,28.7366687 31.0437632,29.0591976 L16.9423559,36.77514 C16.3848082,37.0806529 15.708502,37.0744653 15.1563524,36.7588976 L0.463466358,28.3692798 C0.176595335,28.2053082 0,27.9005687 0,27.5695319 L0,10.9318377 C0,10.2372791 0.390206285,9.60150283 1.00867553,9.28825538 L19.1848853,0.0996631577 C19.7948718,-0.208943601 20.515134,0.2365639 20.515134,0.921841061 L20.515134,13.0866709 C20.515134,13.0982727 20.5213033,13.1083275 20.5313283,13.1137416 L31.0537883,18.9532931 Z M179.269254,17.1950673 C179.297321,16.6557399 179.32624,16.1155606 179.354307,15.5762332 C180.488074,15.1221076 181.792799,14.7523318 183.266781,14.4686098 C184.740763,14.1848879 186.229204,14.0281166 187.732105,14 C188.950925,14 189.986029,14.1278027 190.836567,14.3834081 C191.687105,14.6108969 192.367535,14.9372198 192.877858,15.3632287 C193.870435,14.9372198 194.961675,14.6108969 196.152428,14.3834081 C197.343181,14.1559193 198.59092,14.0281166 199.894794,14 C201.936085,14.0281166 203.467053,14.3408072 204.487698,14.9372198 C205.508343,15.5617489 206.188774,16.3856502 206.528989,17.4080717 C206.869204,18.4304933 207.024852,19.5662332 206.996784,20.8161435 L206.996784,32.7443946 L203.50958,32.7443946 L203.50958,21.2421525 C203.537647,20.1916143 203.424526,19.3251121 203.169365,18.6434978 C202.914203,17.9337668 202.446407,17.4225561 201.765977,17.1098654 C201.113615,16.7690583 200.164414,16.5986547 198.916676,16.5986547 C198.293232,16.5986547 197.583883,16.6838565 196.790331,16.8542601 C195.967861,17.0246637 195.188768,17.280269 194.451352,17.6210763 C194.593392,18.1041704 194.692054,18.6153812 194.749041,19.1547086 C194.806027,19.6940359 194.834094,20.2478475 194.834094,20.8161435 L194.834094,32.7443946 L191.389417,32.7443946 L191.389417,21.2421525 C191.389417,20.1916143 191.261836,19.3251121 191.006675,18.6434978 C190.751514,17.9337668 190.298177,17.4225561 189.645814,17.1098654 C188.993452,16.7690583 188.044252,16.5986547 186.796513,16.5986547 C186.173069,16.5986547 185.492639,16.6693722 184.755222,16.8116592 C183.989738,16.9539461 183.337376,17.137982 182.798986,17.3654709 C182.770918,17.7914798 182.756459,18.2319731 182.756459,18.6860986 C182.728391,19.1691928 182.713932,19.6378026 182.713932,20.0919282 L182.713932,32.7443946 L179.226727,32.7443946 L179.226727,18.8565022 C179.226727,18.2882063 179.241186,17.7343946 179.269254,17.1950673 Z M171.359253,23.5 C171.359253,21.7388789 171.203604,20.3620179 170.891457,19.367713 C170.551242,18.3452915 169.983933,17.6355605 169.190381,17.2376682 C168.39683,16.8116592 167.304739,16.5986547 165.915811,16.5986547 C164.526883,16.5986547 163.434792,16.7835426 162.641241,17.1524663 C161.847689,17.5503587 161.28038,18.2600897 160.940165,19.2825112 C160.59995,20.2768161 160.444302,21.6826457 160.47237,23.5 C160.444302,25.3173543 160.59995,26.7231839 160.940165,27.7174888 C161.28038,28.7117937 161.847689,29.4070403 162.641241,29.8049327 C163.434792,30.2028251 164.526883,30.386861 165.915811,30.3587444 C167.276672,30.386861 168.367911,30.1883408 169.190381,29.7623319 C169.983933,29.3363229 170.551242,28.6265919 170.891457,27.632287 C171.203604,26.6098655 171.359253,25.2321525 171.359253,23.5 Z M173.99592,18.0044843 C174.563228,19.4247982 174.846458,21.2566368 174.846458,23.5 C174.846458,25.7433632 174.563228,27.5615695 173.99592,28.9529148 C173.400543,30.3442601 172.450493,31.3666816 171.146618,32.0201794 C169.842744,32.6736772 168.099142,33 165.915811,33 C163.73248,33 161.975269,32.6873094 160.642477,32.0627803 C159.338602,31.4382511 158.403011,30.4294619 157.835703,29.0381166 C157.240326,27.6178027 156.942638,25.7723318 156.942638,23.5 C156.942638,21.1995516 157.240326,19.3532287 157.835703,17.9618834 C158.403011,16.5705381 159.338602,15.5617489 160.642477,14.9372198 C161.975269,14.3126906 163.73248,14 165.915811,14 C168.099142,14 169.842744,14.3126906 171.146618,14.9372198 C172.450493,15.5907175 173.400543,16.613139 173.99592,18.0044843 Z M154.008282,16.9820628 C153.49796,16.896861 152.94511,16.8116592 152.349734,16.7264574 C151.754358,16.6693722 151.158981,16.6412556 150.563605,16.6412556 C148.635435,16.613139 147.21844,16.8116592 146.310916,17.2376682 C145.375324,17.6917937 144.765489,18.4023767 144.48226,19.367713 C144.227099,20.3330494 144.113977,21.6400449 144.142045,23.2869955 C144.113977,24.451704 144.156504,25.4741256 144.269626,26.3542601 C144.382747,27.2343946 144.652368,27.9730941 145.077636,28.5695067 C145.474837,29.1378027 146.11274,29.5774439 146.991346,29.8901345 C147.869952,30.1738565 149.060705,30.3161435 150.563605,30.3161435 C151.101995,30.3161435 151.683763,30.2735426 152.307207,30.1883408 C152.902584,30.103139 153.469892,30.0034529 154.008282,29.8901345 L154.305971,32.4035875 C153.483501,32.5739911 152.604895,32.716278 151.669304,32.8295965 C150.733712,32.9429148 149.698608,33 148.564841,33 C146.325375,32.9718834 144.637908,32.5032736 143.504141,31.5941704 C142.341456,30.7140359 141.562364,29.5493273 141.165162,28.1008969 C140.767961,26.6524664 140.584245,25.0481166 140.612313,23.2869955 C140.584245,21.270269 140.79688,19.5807175 141.250217,18.2174888 C141.732472,16.8261435 142.625536,15.7747533 143.929411,15.0650224 C145.205217,14.3552915 147.048332,14 149.457906,14 C150.450483,14 151.343548,14.0570852 152.1371,14.1704035 C152.902584,14.283722 153.611081,14.426009 154.263444,14.5964125 L154.008282,16.9820628 Z M136.784893,29.251121 C137.097041,29.5638117 137.23823,30.103139 137.210162,30.8699552 C137.23823,31.6648879 137.097041,32.2186995 136.784893,32.5313902 C136.472746,32.8440807 135.919897,33 135.126344,33 C134.303875,33 133.737417,32.8440807 133.425269,32.5313902 C133.14204,32.2186995 133,31.6793722 133,30.9125561 C133,30.1176234 133.155648,29.5638117 133.467796,29.251121 C133.779944,28.9384305 134.332793,28.7825112 135.126344,28.7825112 C135.919897,28.7825112 136.472746,28.9384305 136.784893,29.251121 Z M124.028571,23.7203948 C123.257142,23.7486185 122.457428,23.7913816 121.628571,23.8486843 C120.799714,23.9059869 120.028285,24.0051974 119.314286,24.1480263 C118.428857,24.2908553 117.786,24.5611184 117.385714,24.9605263 C117.014571,25.3881579 116.828571,26.057829 116.828571,26.9703947 C116.828571,27.9394079 117.128571,28.6099342 117.728571,28.9802632 C118.328571,29.3223684 119.185714,29.4788816 120.3,29.4506579 C120.871714,29.4788816 121.471714,29.4506579 122.1,29.3651316 C122.728285,29.3078289 123.328286,29.1795395 123.9,28.9802632 C123.928286,28.5808553 123.957429,28.1677632 123.985714,27.7401316 C124.014,27.3125 124.028571,26.8994079 124.028571,26.5 L124.028571,23.7203948 Z M129,19.9144737 L129,27.7401316 C129,28.3670395 128.985429,28.9657237 128.957143,29.5361842 C128.928857,30.1066448 128.886,30.67625 128.828571,31.2467106 C127.656857,31.8736184 126.3,32.3157895 124.757143,32.5723685 C123.242572,32.8571711 121.557429,33 119.7,33 C116.899714,33 114.885428,32.5013816 113.657143,31.5032895 C112.428857,30.5051974 111.828857,29.0230263 111.857143,27.0559211 C111.828857,25.4026974 112.257428,24.0907237 113.142857,23.1217105 C114.028286,22.1236184 115.485429,21.4684869 117.514285,21.1546053 C118.571143,21.0117763 119.642571,20.9125658 120.728571,20.8552632 C121.814571,20.7697369 122.914285,20.7124342 124.028571,20.6842105 C124.028571,19.629671 123.728571,18.8453948 123.128571,18.3322369 C122.528571,17.8473027 121.571143,17.6052632 120.257142,17.6052632 C119.028857,17.6052632 117.786,17.6625658 116.528571,17.7763158 C115.271142,17.8618421 114.128571,17.9619079 113.1,18.0756579 L112.671428,14.6546053 C113.757429,14.4835527 114.985714,14.3270395 116.357143,14.1842105 C117.700285,14.0413816 119.128286,13.9558553 120.642857,13.9276316 C122.185714,13.9276316 123.585429,14.0841448 124.842857,14.3980263 C126.100285,14.7401316 127.099714,15.3388158 127.842857,16.1940789 C128.585999,17.0775658 128.971714,18.3176974 129,19.9144737 Z M101.957143,17.6907895 C101.442857,17.6334868 100.971429,17.6052632 100.542857,17.6052632 C98.9425712,17.6052632 97.7854286,17.8473027 97.0714282,18.3322369 C96.3574284,18.8453948 95.9142856,19.5441448 95.7428571,20.4276316 C95.5714286,21.3111185 95.5002858,22.32375 95.5285715,23.4638158 C95.5002858,24.4901316 95.5714286,25.4454605 95.7428571,26.3289474 C95.9142856,27.2124343 96.3282855,27.9394079 96.9857139,28.5098684 C97.6140001,29.05125 98.6425713,29.3369079 100.071429,29.3651316 C100.643143,29.3651316 101.214,29.3223684 101.785714,29.2368422 C102.357428,29.1513158 102.842572,29.0230263 103.242857,28.8519737 C103.300286,28.4816447 103.343143,28.0822369 103.371429,27.6546053 L103.371429,26.3717105 L103.371429,17.9901316 C102.942857,17.8763816 102.471428,17.7763158 101.957143,17.6907895 Z M108.471429,7 L108.471429,27.7401316 C108.471429,28.3670395 108.456857,28.9657237 108.428571,29.5361842 C108.400286,30.1066448 108.357429,30.67625 108.3,31.2467106 C107.128285,31.8736184 105.814286,32.3157895 104.357143,32.5723685 C102.9,32.8571711 101.471143,33 100.071429,33 C97.8145716,33 95.9717143,32.7151974 94.5428567,32.1447369 C93.1431429,31.5460527 92.0999995,30.5479606 91.4142855,29.1513158 C90.756857,27.7546711 90.4285715,25.8585527 90.4285715,23.4638158 C90.4285715,21.0690789 90.7431429,19.1729605 91.3714283,17.7763158 C92.0288568,16.4078948 93.0145715,15.4098027 94.3285711,14.7828947 C95.6717143,14.2124342 97.3859996,13.9276316 99.4714282,13.9276316 C100.099714,13.9276316 100.757143,13.9703948 101.442857,14.0559211 C102.100285,14.1132237 102.743142,14.19875 103.371429,14.3125 L103.371429,7 L108.471429,7 Z M59.4,18.3322369 C58.686,17.8473027 57.5288571,17.6052632 55.9285714,17.6052632 C55.5,17.6052632 55.0285714,17.6334868 54.5142858,17.6907895 C53.9717143,17.7763158 53.5002857,17.8763816 53.1,17.9901316 L53.1,26.3717105 C53.1,26.7993422 53.1,27.2269737 53.1,27.6546053 C53.1282857,28.0822369 53.1711429,28.4816447 53.2285715,28.8519737 C53.5997143,29.0230263 54.0711429,29.1513158 54.6428571,29.2368422 C55.2428571,29.3223684 55.8282857,29.3651316 56.4,29.3651316 C57.8288571,29.3369079 58.8574285,29.05125 59.4857143,28.5098684 C60.1431428,27.9394079 60.5571429,27.2124343 60.7285714,26.3289474 C60.9,25.4454605 60.9711428,24.4901316 60.9428571,23.4638158 C60.9711428,22.32375 60.9,21.3111185 60.7285714,20.4276316 C60.5571429,19.5441448 60.114,18.8453948 59.4,18.3322369 Z M48.0428572,29.5361842 C48.0145715,28.9657237 48,28.3670395 48,27.7401316 L48,7 L53.1,7 L53.1,14.3125 C53.7,14.19875 54.3428572,14.1132237 55.0285714,14.0559211 C55.686,13.9703948 56.3425714,13.9276316 57,13.9276316 C59.0854286,13.9276316 60.7997143,14.2124342 62.1428571,14.7828947 C63.4568571,15.4098027 64.4425714,16.4078948 65.0999999,17.7763158 C65.7282857,19.1729605 66.0428571,21.0690789 66.0428571,23.4638158 C66.0428571,25.8585527 65.7145714,27.7546711 65.0571428,29.1513158 C64.3714286,30.5479606 63.3282857,31.5460527 61.9285714,32.1447369 C60.4997142,32.7151974 58.6568571,33 56.4,33 C55.0002858,33 53.5714286,32.8571711 52.1142857,32.5723685 C50.6571429,32.3157895 49.3431429,31.8736184 48.1714286,31.2467106 C48.1140001,30.67625 48.0711429,30.1066448 48.0428572,29.5361842 Z M86.828571,29.5361842 C86.8002854,30.1066448 86.7574282,30.67625 86.6999996,31.2467106 C85.5,31.8453947 84.1285711,32.2875658 82.5857144,32.5723685 C81.0428569,32.8571711 79.3714288,33 77.5714286,33 C75.7714284,32.9717763 74.3288571,32.7861842 73.2428571,32.444079 C72.1568571,32.1019737 71.3425714,31.6170395 70.7999999,30.9901316 C70.2574285,30.3632237 69.9,29.6217106 69.7285714,28.7664474 C69.5571428,27.9111842 69.4714285,26.9849342 69.4714285,25.9868421 L69.4714285,14.1842105 L74.5714285,14.1842105 L74.5714285,25.6019737 C74.5431428,26.4572368 74.6288571,27.1559869 74.8285714,27.6973685 C75,28.23875 75.3857142,28.6381579 75.985714,28.8947368 C76.5574282,29.1513158 77.4145716,29.2796053 78.5571426,29.2796053 C79.1288568,29.2796053 79.6860002,29.2368422 80.2285714,29.1513158 C80.8002856,29.0657895 81.2854282,28.9520395 81.6857139,28.8092105 C81.7140003,28.4098026 81.7431425,27.9967105 81.7714281,27.569079 C81.7997145,27.1414474 81.8142853,26.7138158 81.8142853,26.2861843 L81.8142853,14.1842105 L86.8714282,14.1842105 L86.8714282,27.7401316 C86.8714282,28.3670395 86.8568574,28.9657237 86.828571,29.5361842 Z" id="buda.com"></path>
                    </g>
                </g>
            </g>
        </g>
    </g>
</svg>