<?xml version="1.0" encoding="UTF-8"?>
<svg width="120px" height="124px" viewBox="0 0 120 124" version="1.1" xmlns="http://www.w3.org/2000/svg" xmlns:xlink="http://www.w3.org/1999/xlink">
    <!-- Generator: sketchtool 56.3 (101010) - https://sketch.com -->
    <title>983897A7-66A1-416D-B69F-CB5EEA518335</title>
    <desc>Created with sketchtool.</desc>
    <g id="Tablet" stroke="none" stroke-width="1" fill="none" fill-rule="evenodd">
        <g id="Intro" transform="translate(-787.000000, -270.000000)" fill="#000000" fill-rule="nonzero">
            <g id="Delivery" transform="translate(787.000000, 270.000000)">
                <g id="delivery">
                    <g id="Group">
                        <path d="M63.4274157,49.3963636 C59.0817978,52.5463636 55.2107865,49.7931818 54.7658427,49.4577273 C53.5334831,48.4881818 51.7550562,48.7159091 50.785618,49.9595455 C49.8161798,51.2086364 50.0319101,53.0181818 51.2696629,54.0027273 C52.7932584,55.2122727 55.7083146,56.6318182 59.1559551,56.6318182 C61.5316854,56.6318182 64.1555056,55.9568182 66.7469663,54.075 C68.0251685,53.1463636 68.3191011,51.3477273 67.3995506,50.0563636 C66.4840449,48.7636364 64.7029213,48.4731818 63.4274157,49.3963636 Z" id="Path"></path>
                        <ellipse id="Oval" cx="52.6206742" cy="41.4804545" rx="3.26022472" ry="3.29727273"></ellipse>
                        <path d="M65.5024719,38.1831818 C63.7051685,38.1831818 62.2395506,39.66 62.2395506,41.4790909 C62.2395506,43.2981818 63.7051685,44.7777273 65.5024719,44.7777273 C67.298427,44.7777273 68.7573034,43.2981818 68.7573034,41.4790909 C68.7573034,39.66 67.298427,38.1831818 65.5024719,38.1831818 Z" id="Path"></path>
                        <path d="M117.525843,88.1809091 C118.024719,87.2672727 117.996404,86.1477273 117.44764,85.2572727 L106.905169,68.2268182 C106.384719,67.3868182 105.473258,66.8740909 104.493034,66.8740909 L81.432809,66.8740909 C83.948764,62.7381818 85.3226966,57.9790909 85.3226966,52.9990909 C85.3226966,38.3522727 73.5424719,26.4395455 59.0588764,26.4395455 C44.5806742,26.4395455 32.8004494,38.3522727 32.8004494,52.9990909 C32.8004494,57.9818182 34.174382,62.7381818 36.6876404,66.8740909 L18.1105618,66.8740909 C17.1289888,66.8740909 16.2161798,67.3868182 15.6970787,68.2268182 L5.15595506,85.2572727 C4.60719101,86.1463636 4.57752809,87.2672727 5.07640449,88.1809091 C5.58067416,89.0972727 6.53393258,89.6659091 7.56808989,89.6659091 L15.261573,89.6659091 L15.261573,120.983182 C15.261573,122.574545 16.5357303,123.863182 18.1092135,123.863182 L94.2997753,123.863182 C100.901124,123.863182 106.272809,118.431818 106.272809,111.754091 L106.272809,89.6659091 L115.032809,89.6659091 C116.068315,89.6659091 117.021573,89.0972727 117.525843,88.1809091 Z M12.7092135,83.9059091 L19.6867416,72.6327273 L42.4355056,72.6327273 C42.4665169,72.6354545 42.4948315,72.6545455 42.5285393,72.6545455 C42.5582022,72.6545455 42.5865169,72.6354545 42.6161798,72.6327273 L72.8480899,72.6327273 L65.8678652,83.9059091 L12.7092135,83.9059091 Z M20.9568539,100.178182 L38.8786517,100.178182 L38.8786517,106.913182 L20.9568539,106.913182 L20.9568539,100.178182 Z M75.141573,118.101818 L20.9568539,118.101818 L20.9568539,112.674545 L44.5752809,112.674545 L44.5752809,94.4181818 L20.9568539,94.4181818 L20.9568539,89.6659091 L67.4440449,89.6659091 C68.4269663,89.6659091 69.3370787,89.1559091 69.8575281,88.3159091 L75.141573,79.7809091 L75.141573,118.101818 Z M74.352809,66.8740909 L43.7649438,66.8740909 C40.3725843,63.0518182 38.4957303,58.1795455 38.4957303,52.9990909 C38.4957303,41.5309091 47.7222472,32.1995455 59.0588764,32.1995455 C70.4022472,32.1995455 79.628764,41.5309091 79.628764,52.9990909 C79.628764,58.1795455 77.7505618,63.0545455 74.352809,66.8740909 Z M100.577528,111.754091 C100.577528,115.255909 97.7635955,118.101818 94.3011236,118.101818 L80.8382022,118.101818 L80.8382022,79.1959091 L86.4835955,88.3131818 C87.0040449,89.1559091 87.9168539,89.6659091 88.898427,89.6659091 L100.578876,89.6659091 L100.578876,111.754091 L100.577528,111.754091 Z M90.4732584,83.9059091 L83.494382,72.6327273 L102.914157,72.6327273 L109.893034,83.9059091 L90.4732584,83.9059091 Z" id="Shape"></path>
                        <path d="M116.248989,31.1836364 C104.563146,31.1836364 95.0575281,43.1536364 95.0575281,57.8672727 C95.0575281,59.4586364 96.3316854,60.7472727 97.9051685,60.7472727 C99.4759551,60.7472727 100.751461,59.4586364 100.751461,57.8672727 C100.751461,46.3309091 107.703371,36.9436364 116.24764,36.9436364 C117.818427,36.9436364 119.095282,35.655 119.095282,34.0636364 C119.096629,32.4722727 117.819775,31.1836364 116.248989,31.1836364 Z" id="Path"></path>
                        <path d="M0.505617978,41.8990909 C0.505617978,43.4890909 1.77842697,44.7790909 3.35325843,44.7790909 C12.1280899,44.7790909 16.2134831,48.9354545 16.2134831,57.8672727 C16.2134831,59.4586364 17.4903371,60.7472727 19.0611236,60.7472727 C20.6346067,60.7472727 21.9074157,59.4586364 21.9074157,57.8672727 C21.9074157,45.7118182 15.3182022,39.0190909 3.35325843,39.0190909 C1.77842697,39.0190909 0.505617978,40.3077273 0.505617978,41.8990909 Z" id="Path"></path>
                        <path d="M103.666517,15.4036364 C105.237303,15.4036364 106.514157,14.1136364 106.514157,12.5236364 C106.514157,10.9322727 105.237303,9.645 103.666517,9.645 C95.1937079,9.645 86.8746067,17.3522727 86.8746067,25.2054545 C86.8746067,26.7968182 88.1501124,28.0854545 89.7222472,28.0854545 C91.2957303,28.0854545 92.5698876,26.7981818 92.5698876,25.2054545 C92.5698876,20.6263636 98.4808989,15.4036364 103.666517,15.4036364 Z" id="Path"></path>
                        <path d="M34.5937079,23.61 C34.5937079,25.2013636 35.8665169,26.49 37.4413483,26.49 C39.0134831,26.49 40.2889888,25.2027273 40.2889888,23.61 C40.2889888,11.2145455 31.7608989,4.52590909 23.738427,4.52590909 C22.1649438,4.52590909 20.8907865,5.81318182 20.8907865,7.40454545 C20.8907865,8.99454545 22.1649438,10.2845455 23.738427,10.2845455 C29.0022472,10.2859091 34.5937079,14.9563636 34.5937079,23.61 Z" id="Path"></path>
                        <path d="M89.7222472,30.2045455 C88.1501124,30.2045455 86.8746067,31.6022727 86.8746067,33.1909091 C86.8746067,34.7822727 88.1501124,36.0709091 89.7222472,36.0709091 C91.2957303,36.0709091 92.5698876,34.7822727 92.5698876,33.1909091 L92.5698876,32.9768182 C92.5698876,31.3895455 91.2957303,30.2045455 89.7222472,30.2045455 Z" id="Path"></path>
                        <path d="M80.7546067,6.06681818 C82.2714607,5.65636364 83.1761798,4.07863636 82.7716854,2.54045455 C82.367191,1.005 80.8152809,0.102272727 79.2862921,0.501818182 C74.7060674,1.73590909 71.8031461,5.33863636 70.5262921,8.85954545 C68.4620225,9.43636364 66.5865169,10.7440909 65.1276404,12.6872727 C62.7734831,15.8168182 62.0710112,19.8136364 63.3303371,22.8722727 C63.7860674,23.9781818 64.847191,24.6477273 65.9635955,24.6477273 C66.3276404,24.6477273 66.698427,24.5740909 67.054382,24.4227273 C68.5078652,23.8118182 69.192809,22.1277273 68.588764,20.6590909 C68.1950562,19.7004545 68.4364045,17.8022727 69.6593258,16.1713636 C69.8130337,15.9722727 70.007191,15.7377273 70.247191,15.5045455 C70.8364045,17.3086364 72.0431461,19.4563636 74.065618,20.3331818 C75.7348315,21.0531818 77.5658427,20.7436364 79.0988764,19.485 C80.811236,18.075 81.4678652,16.1209091 80.9002247,14.1177273 C80.2988764,12.0040909 78.411236,10.35 76.5734831,9.41590909 C77.4080899,7.98409091 78.7658427,6.60136364 80.7546067,6.06681818 Z" id="Path"></path>
                        <ellipse id="Oval" cx="20.1074157" cy="27.195" rx="2.91101124" ry="2.94409091"></ellipse>
                        <ellipse id="Oval" cx="12.2777528" cy="23.9277273" rx="2.90966292" ry="2.94272727"></ellipse>
                        <path d="M27.2426966,45.4486364 C28.8458427,45.4486364 30.1510112,44.1313636 30.1510112,42.5031818 C30.1510112,40.8777273 28.847191,39.5590909 27.2426966,39.5590909 C25.632809,39.5590909 24.3316843,40.8777273 24.3316843,42.5031818 C24.3303371,44.1313636 25.6314607,45.4486364 27.2426966,45.4486364 Z" id="Path"></path>
                        <ellipse id="Oval" cx="25.4507865" cy="34.1181818" rx="2.90157303" ry="2.93454545"></ellipse>
                    </g>
                </g>
            </g>
        </g>
    </g>
</svg>