<?xml version="1.0" encoding="UTF-8"?>
<svg width="272px" height="116px" viewBox="0 0 272 116" version="1.1" xmlns="http://www.w3.org/2000/svg" xmlns:xlink="http://www.w3.org/1999/xlink">
    <!-- Generator: sketchtool 56.3 (101010) - https://sketch.com -->
    <title>2F39A913-B7E2-44E0-9344-14A34CDF4BC8</title>
    <desc>Created with sketchtool.</desc>
    <g id="Tablet" stroke="none" stroke-width="1" fill="none" fill-rule="evenodd">
        <g id="meet_company" transform="translate(-344.000000, -427.000000)">
            <g id="Companies" transform="translate(344.000000, 255.000000)">
                <g id="Fintual" transform="translate(0.000000, 172.000000)">
                    <path d="M15.3833112,0.5 C10.5818938,0.5 8.51481192,0.899171926 6.37472521,2.04370282 C4.50630389,3.04294548 3.04294548,4.50630389 2.04370282,6.37472521 C0.899171926,8.51481192 0.5,10.5818938 0.5,15.3833112 L0.5,100.616689 C0.5,105.418106 0.899171926,107.485188 2.04370282,109.625275 C3.04294548,111.493696 4.50630389,112.957055 6.37472521,113.956297 C8.51481192,115.100828 10.5818938,115.5 15.3833112,115.5 L256.616689,115.5 C261.418106,115.5 263.485188,115.100828 265.625275,113.956297 C267.493696,112.957055 268.957055,111.493696 269.956297,109.625275 C271.100828,107.485188 271.5,105.418106 271.5,100.616689 L271.5,15.3833112 C271.5,10.5818938 271.100828,8.51481192 269.956297,6.37472521 C268.957055,4.50630389 267.493696,3.04294548 265.625275,2.04370282 C263.485188,0.899171926 261.418106,0.5 256.616689,0.5 L15.3833112,0.5 Z" id="Rectangle" stroke-opacity="0.24" stroke="#0A2D42" fill="#004068"></path>
                    <path d="M62,40.6874155 L81.2961895,40.6874155 L81.2961895,47.6611751 L80.2310244,47.6611751 L68.9872236,47.6611751 L68.9872236,54.1891892 L80.2310244,54.1891892 L80.2310244,60.8348293 L68.9872236,60.8348293 L68.9872236,74.5970568 L62,74.5970568 L62,40.6874155 Z M85.2284407,50.4054054 L92.7960083,50.4054054 L92.7960083,75 L85.2284407,75 L85.2284407,50.4054054 Z M89.0122245,48.5135135 C86.9224984,48.5135135 85.2284407,46.8194558 85.2284407,44.7297297 C85.2284407,42.6400036 86.9224984,40.9459459 89.0122245,40.9459459 C91.1019506,40.9459459 92.7960083,42.6400036 92.7960083,44.7297297 C92.7960083,46.8194558 91.1019506,48.5135135 89.0122245,48.5135135 Z M98.908374,50.4054054 L106.426413,50.4054054 L106.426413,53.0477527 C106.426413,53.0477527 107.542076,49.9323535 113.654205,49.9323535 C119.766333,49.9323535 122.171266,54.1891892 122.171266,57.5 L122.171266,74.5970568 L115.055515,74.5970568 L115.055515,62.2647052 C115.206931,58.2851844 113.49264,56.7203069 110.804291,56.7203069 C108.115943,56.7203069 106.571439,58.5217103 106.108358,60.3553114 L106.108358,74.5970568 L98.908374,74.5970568 L98.908374,50.4054054 Z M169.977819,74.1240049 L162.45978,74.1240049 L162.45978,71.4816576 C162.45978,71.4816576 161.344117,74.5970568 155.231989,74.5970568 C149.119861,74.5970568 146.714927,70.3402211 146.714927,67.0294103 L146.714927,49.9323535 L153.830678,49.9323535 L153.830678,62.2647052 C153.679262,66.2442259 155.393554,67.8091035 158.081902,67.8091035 C160.770251,67.8091035 162.314754,66.0077 162.777835,64.1740989 L162.777835,49.9323535 L169.977819,49.9323535 L169.977819,74.1240049 Z M124.898667,56.3253946 L124.898667,54.9803498 L136.845392,43.3134808 L136.845392,50.4054054 L142.526502,50.4054054 L142.526502,56.3253946 L136.309522,56.3253946 C136.309522,61.2716884 136.309522,64.3841227 136.309522,65.6626973 C136.309522,67.5805593 138.122565,68.8398898 139.702527,68.8398898 C140.755836,68.8398898 141.697161,68.5851371 142.526502,68.0756317 L142.526502,73.9990974 C142.526502,73.9990974 141.818545,75 136.845392,75 C131.872239,75 129.345476,72.6918772 129.265104,68.0756317 L129.265104,56.3253946 L124.898667,56.3253946 Z M202.525738,43.148394 L209.671218,40 L209.671218,74.3053488 L202.525738,74.3053488 L202.525738,43.148394 Z M176.541623,51.9465649 C178.314495,50.6037573 181.641152,49.9323535 186.521593,49.9323535 C191.402034,49.9323535 194.745838,52.2972912 196.553004,57.0271667 L196.553004,57.3863243 L196.553004,65.8121117 L196.553004,74.5970568 L189.653577,74.5970568 L189.653577,71.7679593 C188.212558,73.9133685 185.790221,74.9860732 182.386564,74.9860732 C177.28108,74.9860732 175.166237,71.4431152 175.166237,67.9309203 C175.166237,64.4187255 177.031807,62.7496931 179.733589,61.1150095 C181.534776,60.0252204 184.841439,59.4109846 189.653577,59.2723022 C189.306303,57.0337648 187.706743,55.9144961 184.854895,55.9144961 C182.003048,55.9144961 179.231957,56.8908069 176.541623,58.8434285 L176.541623,51.9465649 Z M189.323506,64.4288168 C186.135232,64.3650706 183.975179,64.8233307 182.843347,65.8035973 C181.821989,66.6881835 181.793468,68.5237225 182.843347,69.3003467 C183.538625,69.8146629 184.501173,69.9077186 185.859621,69.6267813 C188.132767,69.156677 189.287396,67.4240222 189.323506,64.4288168 Z" id="fintual" fill="#FFFFFF"></path>
                </g>
            </g>
        </g>
    </g>
</svg>