<?xml version="1.0" encoding="UTF-8"?>
<svg width="120px" height="120px" viewBox="0 0 120 120" version="1.1" xmlns="http://www.w3.org/2000/svg" xmlns:xlink="http://www.w3.org/1999/xlink">
    <!-- Generator: sketchtool 56.3 (101010) - https://sketch.com -->
    <title>4E1DB7F6-B0D0-4C1E-A701-31F1B92DCDDD</title>
    <desc>Created with sketchtool.</desc>
    <g id="Tablet" stroke="none" stroke-width="1" fill="none" fill-rule="evenodd">
        <g id="Intro" transform="translate(-373.000000, -277.000000)" fill="#000000" fill-rule="nonzero">
            <g id="Meeting" transform="translate(372.000000, 277.000000)">
                <g id="meeting" transform="translate(1.000000, 0.000000)">
                    <g id="Group">
                        <path d="M79.5032967,26.9538462 L82.5916484,26.9538462 C86.8707692,26.9538462 90.3547253,23.4751648 90.3547253,19.1934066 L90.3547253,7.83428571 C90.3547253,3.5578022 86.8707692,0.0751648352 82.5916484,0.0751648352 L52.5164835,0.0751648352 C48.236044,0.0751648352 44.7547253,3.5578022 44.7547253,7.83428571 L44.7547253,19.1934066 C44.7547253,23.4751648 48.2373626,26.9538462 52.5164835,26.9538462 L66.8268132,26.9538462 L73.8949451,33.3876923 C74.3182418,33.778022 74.8562637,33.9665934 75.389011,33.9665934 C75.989011,33.9665934 76.5903297,33.723956 77.0254945,33.2413187 C77.850989,32.3367033 77.7850549,30.9362637 76.8791209,30.1107692 L69.1767033,23.0967033 C68.7705495,22.7261538 68.2364835,22.5204396 67.6865934,22.5204396 L52.5164835,22.5204396 C50.6795604,22.5204396 49.1868132,21.0276923 49.1868132,19.1920879 L49.1868132,7.83428571 C49.1868132,6 50.6795604,4.50989011 52.5164835,4.50989011 L82.5916484,4.50989011 C84.4259341,4.50989011 85.9186813,6.00131868 85.9186813,7.83428571 L85.9186813,19.1934066 C85.9186813,21.029011 84.4246154,22.5217582 82.5916484,22.5217582 L79.5032967,22.5217582 C78.2782418,22.5217582 77.2865934,23.5120879 77.2865934,24.7384615 C77.2865934,25.9635165 78.2782418,26.9538462 79.5032967,26.9538462 Z" id="Path"></path>
                        <path d="M80.8668132,13.7604396 C80.8668132,12.5353846 79.8764835,11.5450549 78.6501099,11.5450549 L76.4347253,11.5450549 C75.2083516,11.5450549 74.2167033,12.5353846 74.2167033,13.7604396 C74.2167033,14.9868132 75.2083516,15.9771429 76.4347253,15.9771429 L78.6501099,15.9771429 C79.8764835,15.9771429 80.8668132,14.9868132 80.8668132,13.7604396 Z" id="Path"></path>
                        <path d="M66.2096703,11.5450549 C64.9846154,11.5450549 63.9916484,12.5353846 63.9916484,13.7604396 C63.9916484,14.9868132 64.9846154,15.9771429 66.2096703,15.9771429 L69.6197802,15.9771429 C70.8421978,15.9771429 71.8364835,14.9881319 71.8364835,13.7604396 C71.8364835,12.5353846 70.8421978,11.5450549 69.6197802,11.5450549 L66.2096703,11.5450549 L66.2096703,11.5450549 Z" id="Path"></path>
                        <path d="M57.1727473,11.5450549 C55.9503297,11.5450549 54.9573626,12.5353846 54.9573626,13.7604396 C54.9573626,14.9868132 55.9503297,15.9771429 57.1727473,15.9771429 L59.3920879,15.9771429 C60.6158242,15.9771429 61.6087912,14.9881319 61.6087912,13.7604396 C61.6087912,12.5353846 60.6158242,11.5450549 59.3920879,11.5450549 L57.1727473,11.5450549 L57.1727473,11.5450549 Z" id="Path"></path>
                        <path d="M7.54021978,17.7468132 C6.54725275,18.4589011 6.31648352,19.8448352 7.03120879,20.8391209 L11.007033,26.3815385 C11.4395604,26.9854945 12.1186813,27.3072527 12.810989,27.3072527 C13.2553846,27.3072527 13.7103297,27.1714286 14.0993407,26.8905495 C15.0962637,26.1784615 15.3230769,24.7938462 14.6083516,23.7982418 L10.6364835,18.2571429 C9.92043956,17.2628571 8.53714286,17.0294505 7.54021978,17.7468132 Z" id="Path"></path>
                        <path d="M21.0989011,14.0835165 L21.0989011,22.9516484 C21.0989011,24.1767033 22.0879121,25.1683516 23.3156044,25.1683516 C24.5406593,25.1683516 25.530989,24.178022 25.530989,22.9516484 L25.530989,14.0835165 C25.530989,12.8610989 24.5406593,11.8681319 23.3156044,11.8681319 C22.0879121,11.8681319 21.0989011,12.8610989 21.0989011,14.0835165 Z" id="Path"></path>
                        <path d="M32.7679121,27.0408791 C33.1002198,27.2189011 33.4602198,27.3059341 33.8149451,27.3059341 C34.6048352,27.3059341 35.367033,26.8826374 35.7679121,26.1362637 L38.7468132,20.5951648 C39.3257143,19.5178022 38.9235165,18.1740659 37.8435165,17.5938462 C36.7714286,17.0123077 35.4224176,17.4184615 34.8421978,18.4945055 L31.8632967,24.0356044 C31.2857143,25.1169231 31.6879121,26.461978 32.7679121,27.0408791 Z" id="Path"></path>
                        <circle id="Oval" cx="90.4734066" cy="49.7010989" r="2.49230769"></circle>
                        <circle id="Oval" cx="32.9815385" cy="49.7010989" r="2.49230769"></circle>
                        <path d="M6.40087912,98.276044 L2.11252747,115.428132 C1.81450549,116.614945 2.53714286,117.817582 3.72527473,118.114286 C3.9032967,118.159121 4.08791209,118.182857 4.2632967,118.182857 C5.25626374,118.182857 6.15956044,117.51033 6.41142857,116.502857 L10.4835165,100.205275 C10.767033,100.272527 11.0189011,100.37011 11.3221978,100.421538 C11.4382418,100.44 28.6443956,100.449231 28.6443956,100.449231 L28.6549451,114.638242 C28.8276923,116.443516 30.4193407,119.84967 35.1784615,119.84967 C39.5498901,119.84967 41.4738462,116.637363 41.8813187,114.941538 C41.9248352,114.77011 41.9432967,98.4210989 41.9432967,98.4210989 C42.3085714,96.090989 41.9156044,92.3947253 39.3547253,89.367033 L78.061978,89.367033 C75.4707692,92.3841758 74.9353846,96.0659341 75.1925275,98.367033 L75.1925275,114.424615 C75.1925275,114.598681 75.210989,114.771429 75.2518681,114.942857 C75.6593407,116.638681 77.5832967,119.850989 81.956044,119.850989 C86.7151648,119.850989 88.3028571,116.444835 88.4901099,114.425934 L88.4901099,100.449231 C88.4901099,100.449231 104.29978,100.413626 104.481758,100.403077 L108.507692,116.502857 C108.755604,117.511648 109.66022,118.182857 110.654505,118.182857 C110.832527,118.182857 111.013187,118.159121 111.191209,118.114286 C112.381978,117.816264 113.103297,116.614945 112.803956,115.428132 L109.058901,100.449231 C109.058901,100.449231 110.79033,100.434725 110.932747,100.405714 C116.215385,99.356044 117.783297,94.290989 117.867692,91.8487912 L119.796923,66.2610989 C119.887912,65.04 118.974066,63.9758242 117.75033,63.8848352 C116.563516,63.8017582 115.467692,64.7076923 115.375385,65.9287912 L113.442198,91.6061538 C113.43956,91.6378022 113.261538,94.8632967 110.691429,95.8457143 C111.464176,93.9534066 111.51033,92.1613187 111.507692,91.887033 L111.53011,74.581978 C111.53011,74.4421978 111.515604,74.2958242 111.489231,74.16 C111.441758,73.8936264 110.36967,68.610989 106.859341,64.9002198 C111.42989,61.5824176 114.266374,56.2615385 114.266374,50.4698901 C114.266374,40.621978 106.256703,32.6123077 96.4061538,32.6123077 C86.5569231,32.6123077 78.5472527,40.621978 78.5472527,50.4698901 C78.5472527,57.752967 82.952967,64.1986813 89.5081319,66.9389011 L87.5564835,76.0707692 L74.88,76.0707692 C74.3894505,76.0707692 73.9147253,76.232967 73.5243956,76.530989 C73.2171429,76.770989 70.5098901,78.9705495 70.5098901,82.7221978 C70.5098901,83.5437363 70.6272527,84.272967 70.803956,84.9375824 L49.1512088,84.9375824 C49.3358242,84.2703297 49.4518681,83.5358242 49.4518681,82.7221978 C49.4518681,79.0285714 47.3406593,76.9569231 46.0971429,76.316044 C45.7832967,76.1551648 45.4351648,76.0707692 45.0830769,76.0707692 L34.6879121,76.0707692 L33.1371429,67.2646154 C40.141978,64.7340659 44.9116484,58.050989 44.9116484,50.4698901 C44.9116484,40.621978 36.9006593,32.6123077 27.0514286,32.6123077 C17.2035165,32.6123077 9.18857143,40.621978 9.18857143,50.4698901 C9.18857143,55.5125275 11.341978,60.1951648 14.9076923,63.5221978 C11.2008791,67.5415385 10.6747253,74.1217582 10.647033,74.5832967 L10.6694505,91.8778022 C10.6668132,92.1626374 10.7156044,94.0008791 11.5147253,95.9182418 C7.74857143,95.0294505 7.15912088,91.7907692 7.11296703,91.472967 L4.68,65.883956 C4.56263736,64.6654945 3.48659341,63.7345055 2.26285714,63.8861538 C1.04571429,64.0035165 0.149010989,65.0848352 0.266373626,66.301978 L2.70197802,91.9384615 C2.89714286,93.596044 3.94945055,96.3230769 6.40087912,98.276044 Z M75.7912088,80.5002198 L89.3485714,80.5002198 C90.3916484,80.5002198 91.2962637,79.7696703 91.5151648,78.7463736 L93.989011,67.1775824 C94.2698901,66.9072527 94.4993407,66.5749451 94.6061538,66.1674725 C94.9147253,64.981978 94.2013187,63.7740659 93.0171429,63.4641758 C90.6553846,62.8536264 88.5982418,61.6101099 86.9525275,59.9749451 C88.4043956,59.8562637 89.9498901,59.3841758 91.4927473,58.2778022 C92.487033,57.5630769 92.7164835,56.1810989 92.0030769,55.1841758 C91.287033,54.1885714 89.9024176,53.9617582 88.9054945,54.6764835 C86.5542857,56.3643956 84.4206593,55.3147253 83.7191209,54.8703297 C83.3802198,53.8997802 83.1995604,52.8712088 83.0914286,51.8215385 C83.8338462,51.3903297 84.36,50.6202198 84.36,49.6997802 C84.36,48.8584615 83.9103297,48.149011 83.2654945,47.6967033 C84.5498901,41.6202198 89.9512088,37.0391209 96.4048352,37.0391209 C103.807912,37.0391209 109.834286,43.0628571 109.834286,50.4646154 C109.834286,55.767033 106.703736,60.5854945 101.857582,62.7402198 C100.736703,63.2386813 100.238242,64.5468132 100.731429,65.669011 C101.054505,66.392967 101.728352,66.8202198 102.456264,66.927033 C105.615824,69.152967 106.865934,73.8303297 107.096703,74.8140659 L107.074286,91.8857143 C107.076923,92.3564835 106.876484,94.3107692 105.874286,95.3195604 C105.574945,95.6175824 105.054066,96.0145055 103.947692,96.0145055 L86.2734066,96.0145055 C85.047033,96.0145055 84.058022,97.0048352 84.058022,98.2312088 L84.0685714,114.208352 C84.0540659,114.32967 83.8945055,115.412308 81.9547253,115.412308 C80.3828571,115.412308 79.8092308,114.524835 79.621978,114.075165 C79.621978,114.075165 79.6167033,98.0452747 79.6061538,97.9635165 C79.5257143,97.2764835 79.0773626,91.2830769 86.4804396,89.3643956 L96.0804396,89.3643956 C96.9454945,89.3643956 97.7327473,88.858022 98.0927473,88.0707692 L102.258462,78.9705495 C102.767473,77.8575824 102.280879,76.5402198 101.166593,76.0312088 C100.045714,75.5195604 98.7362637,76.0114286 98.2298901,77.1230769 L94.6562637,84.9323077 L75.629011,84.9323077 C75.3349451,84.5881319 74.9406566,83.912967 74.9406566,82.7169231 C74.9393407,81.7437363 75.418022,80.9617582 75.7912088,80.5002198 Z M13.6193407,50.4672527 C13.6193407,43.0654945 19.6417582,37.0417582 27.0474725,37.0417582 C33.5010989,37.0417582 38.9050549,41.6228571 40.1841758,47.6993407 C39.541978,48.1516484 39.0936264,48.8597802 39.0936264,49.7024176 C39.0936264,50.6228571 39.6184615,51.392967 40.3621978,51.8241758 C40.2540659,52.8698901 40.0734066,53.8984615 39.7345055,54.8703297 C39.0989011,55.2738462 36.9336264,56.3881319 34.5441758,54.6791209 C33.5512088,53.9643956 32.1665934,54.1912088 31.4518681,55.1868132 C30.7371429,56.1837363 30.9665934,57.5657143 31.9608791,58.2804396 C33.5024176,59.3868132 35.0505495,59.8575824 36.4997802,59.9775824 C34.8764835,61.5956044 32.8496703,62.8193407 30.5261538,63.4378022 C30.418022,63.4404396 30.3125275,63.4127473 30.2030769,63.4325275 C28.9991209,63.6435165 28.1934066,64.7934066 28.407033,65.9986813 L30.6421978,78.6725275 C30.8294505,79.7314286 31.7485714,80.5028571 32.8232967,80.5028571 L44.3142857,80.5028571 C44.6162637,80.8443956 45.0145055,81.5195604 45.0145055,82.7221978 C45.0145055,83.8773626 44.5991209,84.5789011 44.2931868,84.9375824 L35.2905495,84.9375824 L27.5116484,84.9375824 L23.938022,77.1283516 C23.429011,76.0167033 22.1169231,75.5248352 21.0013187,76.0364835 C19.887033,76.5454945 19.4004396,77.8628571 19.9081319,78.9758242 L24.0738462,88.076044 C24.4338462,88.8646154 25.2224176,89.3696703 26.0874725,89.3696703 L30.9164835,89.3696703 C38.3920879,91.3041758 37.6536264,97.1802198 37.5428571,97.8356044 C37.5178022,97.9701099 37.5059341,114.071209 37.5059341,114.071209 C37.3054945,114.552527 36.7265934,115.417582 35.1758242,115.417582 C33.6092308,115.417582 33.181978,114.72 33.0738462,114.24 L33.0738462,98.2325275 C33.0738462,97.0061538 32.0835165,96.0158242 30.8584615,96.0158242 L18.2241758,96.0158242 C15.2808791,96.0158242 15.1041758,92.5661538 15.0962637,91.8791209 L15.0685714,74.7349451 C15.1964835,72.9995604 16.0892308,68.3657143 18.5881319,66.1476923 C18.989011,66.3626374 19.3727473,66.6079121 19.7934066,66.7925275 C20.9156044,67.2949451 22.2263736,66.7846154 22.7208791,65.6676923 C23.2153846,64.5454945 22.712967,63.2373626 21.5947253,62.7389011 C16.7498901,60.5881319 13.6193407,55.7696703 13.6193407,50.4672527 Z" id="Shape"></path>
                    </g>
                </g>
            </g>
        </g>
    </g>
</svg>