<?xml version="1.0" encoding="UTF-8"?>
<svg width="272px" height="116px" viewBox="0 0 272 116" version="1.1" xmlns="http://www.w3.org/2000/svg" xmlns:xlink="http://www.w3.org/1999/xlink">
    <!-- Generator: sketchtool 56.3 (101010) - https://sketch.com -->
    <title>D29CC060-A039-472C-8D06-FD6C364B6744</title>
    <desc>Created with sketchtool.</desc>
    <g id="Tablet" stroke="none" stroke-width="1" fill="none" fill-rule="evenodd">
        <g id="meet_company" transform="translate(-344.000000, -255.000000)">
            <g id="Companies" transform="translate(344.000000, 255.000000)">
                <g id="Platanus">
                    <path d="M15.3833112,0.5 C10.5818938,0.5 8.51481192,0.899171926 6.37472521,2.04370282 C4.50630389,3.04294548 3.04294548,4.50630389 2.04370282,6.37472521 C0.899171926,8.51481192 0.5,10.5818938 0.5,15.3833112 L0.5,100.616689 C0.5,105.418106 0.899171926,107.485188 2.04370282,109.625275 C3.04294548,111.493696 4.50630389,112.957055 6.37472521,113.956297 C8.51481192,115.100828 10.5818938,115.5 15.3833112,115.5 L256.616689,115.5 C261.418106,115.5 263.485188,115.100828 265.625275,113.956297 C267.493696,112.957055 268.957055,111.493696 269.956297,109.625275 C271.100828,107.485188 271.5,105.418106 271.5,100.616689 L271.5,15.3833112 C271.5,10.5818938 271.100828,8.51481192 269.956297,6.37472521 C268.957055,4.50630389 267.493696,3.04294548 265.625275,2.04370282 C263.485188,0.899171926 261.418106,0.5 256.616689,0.5 L15.3833112,0.5 Z" id="Rectangle" stroke-opacity="0.24" stroke="#E0AA00" fill="#FABD00"></path>
                    <g id="Platanus-Isologo" transform="translate(36.000000, 40.000000)" fill="#FFFFFF" fill-rule="nonzero">
                        <g id="Group-4">
                            <path d="M28.0669212,0.115006838 C28.1837708,0.191678064 28.2616706,0.268349289 28.3395704,0.345020515 C31.9619093,5.4053214 35,11.0789921 35,18.5927722 C35,26.1448879 31.8450596,31.8185586 28.3395704,36.5721746 C28.2227207,36.6871814 28.1837708,36.8021882 28.0279713,36.9171951 C27.8721718,37.0322019 27.5605727,36.9938663 27.5605727,36.9938663 L24.1719331,36.9938663 C24.1719331,36.9938663 24.0550834,36.9938663 24.0161336,36.9555307 C23.9771837,36.8788595 24.0161336,36.8405239 24.0550834,36.8021882 C25.4183293,34.1186953 26.7815751,31.3968668 27.794272,28.3300178 C28.768019,25.4165113 29.7417661,22.2346554 29.8196658,18.516101 C29.9365155,14.452526 29.3522673,11.9990468 28.5343198,9.39222512 C27.2879236,5.48199262 25.5351789,2.37680799 24.1719331,0.345020515 C24.0550834,0.191678064 24.0550834,0.153342451 24.0940333,0.0766712255 C24.1719331,0 24.2498329,0 24.2498329,0 L27.5995226,0 C27.6384725,0.0383356127 27.9500715,0.0383356127 28.0669212,0.115006838 Z M24.5392089,6.53958944 C24.6913929,7.04789834 24.957715,7.75171065 24.995761,8.65102639 C25.071853,11.8963832 24.1207029,15.259042 22.3705866,18.6608016 C19.3649521,24.4868035 14.8374773,27.5757576 10.3480486,29.8826979 C10.2339105,29.9217986 10.1578185,29.9608993 10.0056345,30 C9.85345048,30 9.62517444,29.8826979 9.62517444,29.8826979 L7.11413802,28.514174 C7.11413802,28.514174 7,28.4359726 7,28.3968719 C7,28.3577713 7.03804601,28.3186706 7.11413802,28.3186706 C9.16862236,26.7937439 11.2611527,25.2297165 13.201499,23.2746823 C15.0657533,21.3978495 17.0441457,19.3255132 18.5659859,16.5102639 C20.2780562,13.3822092 20.8107003,11.2707722 21.2292064,8.96383187 C21.8759885,5.44477028 21.7998965,2.35581623 21.5716204,0.244379277 C21.5335744,0.0879765396 21.5716204,0.0488758553 21.6096664,0.00977517107 C21.6477124,0.00977517107 21.6857584,-0.0293255132 21.7238045,0.0488758553 C21.7998965,0.205278592 24.3109329,5.95307918 24.5392089,6.53958944 Z M19.8507463,5.57871397 C19.8134328,5.99334812 19.738806,6.55875831 19.4029851,7.19955654 C18.3955224,9.49889135 16.6044776,11.5343681 14.2164179,13.3059867 C10.1492537,16.3592018 5.85820896,16.962306 1.90298507,17 C1.79104478,17 1.71641791,17 1.60447761,16.962306 C1.49253731,16.924612 1.38059701,16.7361419 1.38059701,16.7361419 L0.0373134328,14.9268293 C0.0373134328,14.9268293 0,14.8514412 0,14.8137472 C0.0373134328,14.7760532 0.0746268657,14.7760532 0.111940299,14.7760532 C2.12686567,14.4368071 4.10447761,14.0221729 6.15671642,13.3436807 C8.09701493,12.6651885 10.2238806,11.9113082 12.2761194,10.5166297 C14.5149254,8.93348115 15.5970149,7.61419069 16.6791045,6.14412417 C18.2835821,3.88248337 19.2910448,1.6962306 19.8134328,0.150776053 C19.8507463,0.0376940133 19.8880597,0 19.9253731,0 C19.9626866,0 20,0 20,0.0753880266 C20,0.188470067 19.8880597,5.0886918 19.8507463,5.57871397 Z M64.2423288,19.7299251 C64.2423288,17.6691489 63.7780251,16.066347 62.8494037,14.9214714 C61.9207824,13.7765957 60.426106,13.2041665 58.3653299,13.2041665 C57.9328213,13.2041665 57.4812382,13.2232475 57.0105671,13.26141 C56.539896,13.2995725 56.0755923,13.3822567 55.617642,13.5094651 L55.617642,24.9200021 C56.0247089,25.1998606 56.5653366,25.4606339 57.2395411,25.7023299 C57.9137457,25.9440258 58.6324624,26.064872 59.3957128,26.064872 C61.0748638,26.064872 62.3024065,25.4924428 63.0783777,24.3475671 C63.854349,23.2026915 64.2423288,21.6634928 64.2423288,19.7299251 Z M68.9744579,19.6536004 C68.9744579,21.1801013 68.7772878,22.5793728 68.3829417,23.8514568 C67.9885957,25.1235409 67.4225268,26.2175168 66.684718,27.1334173 C65.9469092,28.0493178 65.0246621,28.7616742 63.917949,29.2705078 C62.8112359,29.7793414 61.5582519,30.0337544 60.1589594,30.0337544 C59.2176172,30.0337544 58.352613,29.9192686 57.5639209,29.6902934 C56.7752288,29.4613183 56.1264757,29.2069053 55.617642,28.9270468 L55.617642,36.674 L51,36.674 L51,10.3038293 C51.9413422,10.0494125 53.0989213,9.80772019 54.4727721,9.57874506 C55.8466229,9.34976993 57.296777,9.23528408 58.8232778,9.23528408 C60.4006621,9.23528408 61.8126542,9.47697642 63.0592966,9.96036837 C64.3059389,10.4437603 65.3681132,11.1370357 66.2458512,12.0402154 C67.1235892,12.9433951 67.7977836,14.037371 68.2684547,15.3221759 C68.7391258,16.6069808 68.9744579,18.0507745 68.9744579,19.6536004 Z M80.6902934,29.9955921 C79.3164427,29.9701504 78.1779445,29.8175026 77.2747648,29.5376441 C76.3715851,29.2577856 75.6528684,28.8570852 75.1185931,28.3355307 C74.5843178,27.8139762 74.2090587,27.1652231 73.9928044,26.3892518 C73.7765501,25.6132805 73.6684246,24.7291954 73.6684246,23.7369698 L73.6684246,0.763246618 L78.2860666,0 L78.2860666,22.8592362 C78.2860666,23.4189532 78.3305889,23.8896172 78.4196348,24.2712425 C78.5086806,24.6528677 78.6676888,24.9772442 78.8966639,25.2443819 C79.125639,25.5115195 79.4372949,25.7150499 79.831641,25.8549792 C80.2259871,25.9949084 80.7284527,26.103034 81.3390531,26.179359 L80.6902934,29.9955921 Z M92.1008304,26.3701707 C93.5255645,26.3701707 94.6068198,26.2938468 95.3446285,26.1411967 L95.3446285,21.0274443 C95.0902117,20.9511193 94.7213129,20.8747954 94.2379209,20.7984703 C93.754529,20.7221453 93.2202617,20.6839834 92.635103,20.6839834 C92.1262694,20.6839834 91.6110831,20.7221453 91.0895286,20.7984703 C90.5679742,20.8747954 90.0973101,21.0147225 89.6775224,21.218256 C89.2577346,21.4217894 88.9206374,21.7080041 88.6662206,22.0769084 C88.4118038,22.4458128 88.2845973,22.9101165 88.2845973,23.4698335 C88.2845973,24.5638258 88.6280548,25.3207045 89.3149802,25.7404922 C90.0019056,26.1602799 90.9305131,26.3701707 92.1008304,26.3701707 Z M91.7192071,9.15895942 C93.2457079,9.15895942 94.5304936,9.34976916 95.5736025,9.73139438 C96.6167114,10.1130196 97.449914,10.6472869 98.0732352,11.3342123 C98.6965564,12.0211377 99.1417791,12.8543402 99.4089168,13.833845 C99.6760544,14.8133497 99.8096212,15.8882446 99.8096212,17.0585619 L99.8096212,29.1560208 C99.0972542,29.3086709 98.0223593,29.4931203 96.5849043,29.7093746 C95.1474493,29.9256289 93.5255664,30.0337544 91.7192071,30.0337544 C90.5234481,30.0337544 89.4294722,29.9192686 88.4372466,29.6902934 C87.4450211,29.4613183 86.5990978,29.0924195 85.8994516,28.5835858 C85.1998054,28.0747522 84.6528174,27.4132784 84.2584714,26.5991446 C83.8641253,25.7850108 83.6669553,24.7800795 83.6669553,23.5843205 C83.6669553,22.4394448 83.8895666,21.4726755 84.334796,20.6839834 C84.7800255,19.8952912 85.3842563,19.2528984 86.1475068,18.7567856 C86.9107572,18.2606729 87.7948424,17.9044947 88.7997888,17.6882404 C89.8047352,17.4719861 90.8541888,17.3638606 91.9481811,17.3638606 C92.4570147,17.3638606 92.991282,17.3956622 93.550999,17.4592664 C94.1107159,17.5228706 94.7085865,17.6309961 95.3446285,17.7836462 L95.3446285,17.0203996 C95.3446285,16.4861243 95.2810253,15.9772983 95.1538169,15.4939063 C95.0266085,15.0105144 94.8039971,14.5843726 94.4859761,14.2154683 C94.1679551,13.8465639 93.7481736,13.5603493 93.2266191,13.3568158 C92.7050647,13.1532824 92.0499512,13.0515172 91.2612591,13.0515172 C90.1927085,13.0515172 89.2132185,13.1278411 88.3227596,13.2804912 C87.4323008,13.4331412 86.7072237,13.6112303 86.1475068,13.8147638 L85.5750718,10.0748554 C86.1602305,9.87132191 87.012514,9.66779151 88.131948,9.46425806 C89.2513819,9.26072462 90.447123,9.15895942 91.7192071,9.15895942 Z M105.228672,4.38866805 L109.846314,3.62542144 L109.846314,9.65506972 L116.944508,9.65506972 L116.944508,13.5094651 L109.846314,13.5094651 L109.846314,21.6380416 C109.846314,23.2408675 110.100727,24.385726 110.609561,25.0726514 C111.118394,25.7595768 111.983399,26.1030343 113.204599,26.1030343 C114.044175,26.1030343 114.788333,26.0139898 115.437096,25.835898 C116.085859,25.6578063 116.601045,25.4924378 116.98267,25.3397877 L117.745917,29.0033715 C117.211641,29.2323466 116.512006,29.4676786 115.646989,29.7093746 C114.781971,29.9510706 113.764319,30.0719168 112.594002,30.0719168 C111.169268,30.0719168 109.979887,29.881107 109.025824,29.4994818 C108.071761,29.1178566 107.314882,28.5645083 106.755165,27.8394204 C106.195448,27.1143325 105.801108,26.2366076 105.572133,25.2062196 C105.343158,24.1758315 105.228672,22.9991714 105.228672,21.676204 L105.228672,4.38866805 Z M128.431369,26.3701707 C129.856104,26.3701707 130.937359,26.2938468 131.675168,26.1411967 L131.675168,21.0274443 C131.420751,20.9511193 131.051852,20.8747954 130.56846,20.7984703 C130.085068,20.7221453 129.550801,20.6839834 128.965642,20.6839834 C128.456808,20.6839834 127.941622,20.7221453 127.420068,20.7984703 C126.898513,20.8747954 126.427849,21.0147225 126.008061,21.218256 C125.588274,21.4217894 125.251176,21.7080041 124.99676,22.0769084 C124.742343,22.4458128 124.615136,22.9101165 124.615136,23.4698335 C124.615136,24.5638258 124.958594,25.3207045 125.645519,25.7404922 C126.332445,26.1602799 127.261052,26.3701707 128.431369,26.3701707 Z M128.049746,9.15895942 C129.576247,9.15895942 130.861033,9.34976916 131.904142,9.73139438 C132.94725,10.1130196 133.780453,10.6472869 134.403774,11.3342123 C135.027095,12.0211377 135.472318,12.8543402 135.739456,13.833845 C136.006593,14.8133497 136.14016,15.8882446 136.14016,17.0585619 L136.14016,29.1560208 C135.427793,29.3086709 134.352898,29.4931203 132.915443,29.7093746 C131.477988,29.9256289 129.856105,30.0337544 128.049746,30.0337544 C126.853987,30.0337544 125.760011,29.9192686 124.767786,29.6902934 C123.77556,29.4613183 122.929637,29.0924195 122.229991,28.5835858 C121.530344,28.0747522 120.983356,27.4132784 120.58901,26.5991446 C120.194664,25.7850108 119.997494,24.7800795 119.997494,23.5843205 C119.997494,22.4394448 120.220106,21.4726755 120.665335,20.6839834 C121.110564,19.8952912 121.714795,19.2528984 122.478046,18.7567856 C123.241296,18.2606729 124.125381,17.9044947 125.130328,17.6882404 C126.135274,17.4719861 127.184728,17.3638606 128.27872,17.3638606 C128.787554,17.3638606 129.321821,17.3956622 129.881538,17.4592664 C130.441255,17.5228706 131.039126,17.6309961 131.675168,17.7836462 L131.675168,17.0203996 C131.675168,16.4861243 131.611564,15.9772983 131.484356,15.4939063 C131.357147,15.0105144 131.134536,14.5843726 130.816515,14.2154683 C130.498494,13.8465639 130.078713,13.5603493 129.557158,13.3568158 C129.035604,13.1532824 128.38049,13.0515172 127.591798,13.0515172 C126.523248,13.0515172 125.543757,13.1278411 124.653299,13.2804912 C123.76284,13.4331412 123.037763,13.6112303 122.478046,13.8147638 L121.905611,10.0748554 C122.490769,9.87132191 123.343053,9.66779151 124.462487,9.46425806 C125.581921,9.26072462 126.777662,9.15895942 128.049746,9.15895942 Z M141.788185,10.3038293 C142.678644,10.0494125 143.836223,9.80772019 145.260957,9.57874506 C146.685691,9.34976993 148.263052,9.23528408 149.993086,9.23528408 C151.621354,9.23528408 152.982463,9.45789545 154.076456,9.90312487 C155.170448,10.3483543 156.041813,10.9716661 156.690575,11.7730791 C157.339338,12.574492 157.797282,13.5412614 158.064419,14.6734162 C158.331557,15.805571 158.465124,17.0458344 158.465124,18.3942435 L158.465124,29.6139688 L153.847482,29.6139688 L153.847482,19.1193278 C153.847482,18.0507772 153.777518,17.1412507 153.637589,16.3907211 C153.49766,15.6401915 153.268688,15.0296003 152.950667,14.5589292 C152.632646,14.0882581 152.200144,13.7448006 151.653148,13.5285463 C151.106152,13.312292 150.438318,13.2041665 149.649625,13.2041665 C149.064467,13.2041665 148.453876,13.2423284 147.817834,13.3186535 C147.181791,13.3949785 146.711127,13.4585818 146.405827,13.5094651 L146.405827,29.6139688 L141.788185,29.6139688 L141.788185,10.3038293 Z M180.484789,29.0033715 C179.59433,29.2323466 178.436751,29.4676786 177.012017,29.7093746 C175.587283,29.9510706 174.022643,30.0719168 172.31805,30.0719168 C170.715224,30.0719168 169.373195,29.8429451 168.291924,29.3849948 C167.210653,28.9270445 166.345648,28.291012 165.696886,27.4768783 C165.048123,26.6627445 164.583819,25.6896147 164.30396,24.5574599 C164.024102,23.4253051 163.884175,22.1850418 163.884175,20.8366327 L163.884175,9.65506972 L168.501817,9.65506972 L168.501817,20.1115484 C168.501817,22.2486496 168.813473,23.7751276 169.436794,24.6910281 C170.060115,25.6069286 171.147731,26.064872 172.699673,26.064872 C173.25939,26.064872 173.8509,26.0394307 174.474222,25.9885473 C175.097543,25.937664 175.561847,25.8740607 175.867147,25.7977357 L175.867147,9.65506972 L180.484789,9.65506972 L180.484789,29.0033715 Z M191.361053,26.293846 C192.582254,26.293846 193.472699,26.1475585 194.032416,25.8549792 C194.592133,25.5623999 194.871988,25.0599342 194.871988,24.3475671 C194.871988,23.6860834 194.573052,23.1390955 193.975173,22.7065869 C193.377293,22.2740783 192.391443,21.8034143 191.017592,21.2945806 C190.178017,20.9892805 189.408417,20.6649039 188.708771,20.3214412 C188.009125,19.9779785 187.404894,19.577278 186.89606,19.1193278 C186.387227,18.6613775 185.986526,18.1080293 185.693947,17.4592664 C185.401368,16.8105035 185.25508,16.0154629 185.25508,15.0741207 C185.25508,13.2423197 185.929275,11.7985259 187.277684,10.7426961 C188.626093,9.68686638 190.457866,9.15895942 192.773059,9.15895942 C193.943377,9.15895942 195.062794,9.26708494 196.131344,9.48333923 C197.199895,9.69959352 198.001296,9.90948424 198.535571,10.1130177 L197.696,13.8529261 C197.187166,13.623951 196.538413,13.4140603 195.749721,13.2232477 C194.961029,13.0324351 194.045142,12.9370302 193.002033,12.9370302 C192.060691,12.9370302 191.297452,13.0960383 190.712293,13.4140593 C190.127135,13.7320803 189.83456,14.2218253 189.83456,14.8833091 C189.83456,15.2140509 189.891803,15.5066259 190.00629,15.7610427 C190.120778,16.0154595 190.317948,16.2507915 190.597806,16.4670458 C190.877665,16.6833001 191.246564,16.8995511 191.704514,17.1158054 C192.162464,17.3320597 192.722173,17.5546711 193.383657,17.7836462 C194.477649,18.1907131 195.406256,18.5914136 196.169507,18.9857596 C196.932757,19.3801057 197.562429,19.8253284 198.058542,20.3214412 C198.554655,20.817554 198.917193,21.3836229 199.146169,22.0196649 C199.375144,22.655707 199.48963,23.4189459 199.48963,24.3094048 C199.48963,26.2175309 198.783633,27.6613246 197.37162,28.6408293 C195.959607,29.6203341 193.943384,30.1100791 191.322891,30.1100791 C189.567415,30.1100791 188.155423,29.9637916 187.086872,29.6712123 C186.018321,29.3786329 185.267803,29.1433009 184.835294,28.9652092 L185.636703,25.1108137 C186.323629,25.3906722 187.144111,25.6578059 188.098174,25.9122227 C189.052237,26.1666395 190.139852,26.293846 191.361053,26.293846 Z" id="Combined-Shape"></path>
                        </g>
                    </g>
                </g>
            </g>
        </g>
    </g>
</svg>