<?xml version="1.0" encoding="UTF-8"?>
<svg width="272px" height="116px" viewBox="0 0 272 116" version="1.1" xmlns="http://www.w3.org/2000/svg" xmlns:xlink="http://www.w3.org/1999/xlink">
    <!-- Generator: sketchtool 56.3 (101010) - https://sketch.com -->
    <title>59D290F7-3220-4697-9073-04376F8AFCCA</title>
    <desc>Created with sketchtool.</desc>
    <g id="Tablet" stroke="none" stroke-width="1" fill="none" fill-rule="evenodd">
        <g id="meet_company" transform="translate(-664.000000, -427.000000)">
            <g id="Companies" transform="translate(344.000000, 255.000000)">
                <g id="?" transform="translate(320.000000, 172.000000)">
                    <rect id="Rectangle" stroke-opacity="0.242706512" stroke="#A1BBD9" fill="#F2F8FF" x="0.5" y="0.5" width="271" height="115" rx="12"></rect>
                    <path d="M124.770787,77.8035296 C127.339212,75.3589743 132.054008,75.3589743 134.664084,77.8035296 C135.971898,79.0232122 136.718824,80.7255777 136.718824,82.4279432 C136.718824,84.1303087 135.974675,85.8300792 134.664084,87.0523568 C133.364599,88.2720395 131.540323,88.9701131 129.718824,88.9701131 C127.847344,88.9701131 126.075825,88.2746345 124.770787,87.0523568 C123.46575,85.8300792 122.718824,84.1303087 122.718824,82.4279432 C122.718824,80.7255777 123.46575,79.0232122 124.770787,77.8035296 Z M125.482676,53.6509961 C121.738567,54.1229044 118.26968,51.511321 117.790085,47.8084498 C116.866321,40.7405507 119.405993,34.6969071 124.763284,31.2246274 C130.428496,27.5539317 138.418108,27.5271188 144.655565,31.1522324 C150.805822,34.731764 154.127561,41.2044151 153.536242,48.4653676 C152.7896,57.6139532 146.399546,61.8986659 142.170392,64.7327969 C139.518996,66.5158594 137.85949,67.6822237 137.279071,69.1515744 C136.221783,71.819465 133.624886,73.4523749 130.875391,73.4523749 C130.049726,73.4523749 129.19681,73.3049036 128.376594,72.9858293 C124.842308,71.6290929 123.098327,67.7063553 124.479887,64.228713 C126.638063,58.7910426 130.959866,55.8925604 134.431477,53.5625133 C138.344534,50.9348422 139.633445,49.8757298 139.837818,47.3821236 C140.012216,45.2504924 139.295549,43.7462847 137.649667,42.791743 C135.763988,41.6870486 133.447763,41.780894 132.322351,42.5182507 C131.48306,43.062554 131.180588,44.2610938 131.414936,46.0816945 C131.902705,49.7845657 129.245859,53.1737252 125.482676,53.6509961 Z" fill="#A1BBD9" fill-rule="nonzero" transform="translate(135.603735, 58.711244) rotate(-7.000000) translate(-135.603735, -58.711244) "></path>
                </g>
            </g>
        </g>
    </g>
</svg>